<svg xmlns="http://www.w3.org/2000/svg" width="19.4" height="19.4" viewBox="0 0 19.4 19.4">
  <g id="Group_456" data-name="Group 456" transform="translate(-95.8 -287.8)">
    <g id="Group_447" data-name="Group 447" transform="translate(-124 -3805)">
      <path id="Path_11" data-name="Path 11" d="M154.281,50.791a.341.341,0,0,0-.068-.221,4.5,4.5,0,0,0-1.355-.72,8.024,8.024,0,0,0-2.294-.425l-.092,0s-.1,0-.1,0a2.255,2.255,0,0,0-.366-.013c-.267,0-.267,0-.462,0a8.738,8.738,0,0,0-2.026.32,5.106,5.106,0,0,0-1.651.782.3.3,0,0,0-.133.277c.006.772,0,1.543,0,2.315a5.934,5.934,0,0,0,2.148,4.669,10.043,10.043,0,0,0,2,1.329l.1.055a.025.025,0,0,0,.028,0c.048-.027.077-.043.106-.058a9.554,9.554,0,0,0,2.262-1.567,5.841,5.841,0,0,0,1.783-3.248,8.228,8.228,0,0,0,.1-1.5c0-.692,0-1.309,0-2Zm-.635,2.223a7.007,7.007,0,0,1-.089,1.276,4.974,4.974,0,0,1-1.518,2.765,8.133,8.133,0,0,1-1.926,1.334l-.09.05a.021.021,0,0,1-.023,0l-.089-.047a8.548,8.548,0,0,1-1.7-1.131,5.054,5.054,0,0,1-1.829-3.976c0-.657,0-1.314,0-1.971a.258.258,0,0,1,.114-.236,4.346,4.346,0,0,1,1.406-.666,7.438,7.438,0,0,1,1.725-.272c.166,0,.166,0,.393,0a1.932,1.932,0,0,1,.311.011s.081,0,.081,0l.078,0a6.838,6.838,0,0,1,1.953.362,3.829,3.829,0,0,1,1.154.613.291.291,0,0,1,.058.188c0,.59,0,1.114,0,1.7Z" transform="translate(79.661 4048.973)" fill="#89bf2d" stroke="#95c93d" stroke-width="0.3"/>
      <path id="Path_12" data-name="Path 12" d="M194.529,98.848a2.323,2.323,0,0,0-.7-.371,4.14,4.14,0,0,0-1.184-.219l-.047,0s-.049,0-.049,0a1.169,1.169,0,0,0-.189-.007l-.238,0a4.51,4.51,0,0,0-1.045.165,2.634,2.634,0,0,0-.852.4.156.156,0,0,0-.069.143c0,.4,0,.8,0,1.194a3.062,3.062,0,0,0,1.108,2.409,5.185,5.185,0,0,0,1.033.685l.054.028a.013.013,0,0,0,.014,0l.055-.03a4.929,4.929,0,0,0,1.167-.809,3.014,3.014,0,0,0,.92-1.675,4.238,4.238,0,0,0,.054-.773c0-.357,0-.675,0-1.032a.176.176,0,0,0-.035-.114Z" transform="translate(37.266 4002.247)" fill="#89bf2d"/>
      <g id="Group_400" data-name="Group 400" transform="translate(-776 -280)">
        <g id="Ellipse_30" data-name="Ellipse 30" transform="translate(997 4374)" fill="none" stroke="#000" stroke-width="1.2">
          <circle cx="8.5" cy="8.5" r="8.5" stroke="none"/>
          <circle cx="8.5" cy="8.5" r="9.1" fill="none"/>
        </g>
      </g>
    </g>
  </g>
</svg>
