<svg xmlns="http://www.w3.org/2000/svg" width="19.4" height="19.4" viewBox="0 0 19.4 19.4">
  <g id="Group_455" data-name="Group 455" transform="translate(-995.8 -4372.8)">
    <g id="Ellipse_30" data-name="Ellipse 30" transform="translate(997 4374)" fill="none" stroke="#000" stroke-width="1.2">
      <circle cx="8.5" cy="8.5" r="8.5" stroke="none"/>
      <circle cx="8.5" cy="8.5" r="9.1" fill="none"/>
    </g>
    <path id="Path_58" data-name="Path 58" d="M115.074,44.968l-1.136-1.136a.333.333,0,0,0-.466,0l-2.993,2.993a.329.329,0,0,0,0,.466l1.136,1.136a.333.333,0,0,0,.466,0l2.993-2.993A.329.329,0,0,0,115.074,44.968Zm-.028-.337.184.184a.548.548,0,0,1,.063.7l1.276,1.276a.107.107,0,0,1,.024.118,1.592,1.592,0,0,0,.657,1.869,1.414,1.414,0,0,0,1.458.037l-.972-.563-.348-.2a.11.11,0,0,1-.063-.1v-.827a.108.108,0,0,1,.055-.094l.714-.412a.1.1,0,0,1,.109,0l.359.206.968.558a1.614,1.614,0,0,0-.757-1.243,1.489,1.489,0,0,0-.676-.212,1.524,1.524,0,0,0-.628.109.107.107,0,0,1-.125-.022L115.5,44.173Zm-.615-.615.46.46,2.5-2.5a.1.1,0,0,1,.1-.028l.348.085,1.186-1.545-.611-.611-1.545,1.189.083.341a.117.117,0,0,1-.026.112Zm-.337-.339.184.184.458-.458-1.848-1.848a.1.1,0,0,1-.024-.116,1.524,1.524,0,0,0-2.117-1.907l.613.355.707.407a.11.11,0,0,1,.063.1v.825a.108.108,0,0,1-.055.094l-.359.206-.357.206a.1.1,0,0,1-.109,0l-1.329-.766a1.522,1.522,0,0,0,1.4,1.443,1.506,1.506,0,0,0,.661-.1.108.108,0,0,1,.125.022l1.283,1.283a.557.557,0,0,1,.7.066Zm-.063,1.543a.11.11,0,0,1,.155.155l-2.148,2.148a.11.11,0,0,1-.155-.155Zm-.5-.5a.11.11,0,0,1,.155.155l-2.148,2.148a.11.11,0,0,1-.155-.155Z" transform="translate(890.985 4338.548)" fill="#89bf2d"/>
  </g>
</svg>
